<svg xmlns="http://www.w3.org/2000/svg" width="1616" height="300" viewBox="0 0 1616 300">
  <g transform="translate(40 40)"><g transform="scale(1.1458333333333333) translate(214 64)"><path d="M0 -6L7 -10L15 -36L23 -8L40 -14L62 -28L56 -18L64 -10L54 -2L30 14L22 40L16 62L10 72L0 86L-10 72L-16 62L-24 44L-60 92L-82 52L-118 84L-132 40L-176 60L-176 10L-214 -8L-150 -40L-92 -62L-30 -14L-23 -8L-15 -36L-7 -10ZM72 -20L110 -8L118 50L126 100L104 84L102 126L82 96L74 128L66 84L58 40L70 10L62 0ZM-150 -10L-132 -20L-138 0ZM-100 0L-82 -10L-84 12ZM-125 20L-108 28L-124 40Z" fill="#143c46" fill-rule="evenodd" stroke="#143c46" stroke-width="3" stroke-linejoin="round"/><circle cx="-6" cy="-2" r="2.6" fill="#e8892b"/><circle cx="6" cy="-2" r="2.6" fill="#e8892b"/></g></g>
  <g transform="translate(459.5833333333333 0)">
    <path d="M52.37 202.50L12.01 202.50L12.01 97.47L50.24 97.47Q67.82 97.47 77.27 103.92Q86.72 110.36 86.72 122.08Q86.72 130.58 80.97 136.95Q75.22 143.32 66.28 145.81L66.28 146.10Q77.49 147.50 84.19 154.38Q90.89 161.26 90.89 171.15Q90.89 185.58 80.57 194.04Q70.24 202.50 52.37 202.50M44.53 114.90L35.67 114.90L35.67 139.80L46.07 139.80Q53.39 139.80 57.60 136.25Q61.82 132.70 61.82 126.47Q61.82 114.90 44.53 114.90M48.63 157.38L35.67 157.38L35.67 185.07L48.49 185.07Q56.69 185.07 61.34 181.26Q65.99 177.45 65.99 170.86Q65.99 164.56 61.41 160.97Q56.84 157.38 48.63 157.38M168.31 157.68L168.31 202.50L146.41 202.50L146.41 191.73L146.12 191.73Q138.57 204.33 123.78 204.33Q112.87 204.33 106.60 198.14Q100.34 191.95 100.34 181.63Q100.34 159.80 126.20 156.43L146.56 153.72Q146.56 141.42 133.23 141.42Q119.82 141.42 107.74 149.40L107.74 131.97Q112.57 129.48 120.96 127.57Q129.35 125.67 136.23 125.67Q168.31 125.67 168.31 157.68M146.56 172.03L146.56 166.98L132.93 168.74Q121.66 170.20 121.66 178.92Q121.66 182.87 124.40 185.40Q127.15 187.92 131.84 187.92Q138.35 187.92 142.46 183.42Q146.56 178.92 146.56 172.03M231.96 184.48L231.96 201.62Q226.83 204.33 216.50 204.33Q192.04 204.33 192.04 178.92L192.04 144.57L179.88 144.57L179.88 127.50L192.04 127.50L192.04 111.31L215.11 104.72L215.11 127.50L231.96 127.50L231.96 144.57L215.11 144.57L215.11 174.89Q215.11 186.61 224.41 186.61Q228.08 186.61 231.96 184.48M290.33 184.48L290.33 201.62Q285.21 204.33 274.88 204.33Q250.42 204.33 250.42 178.92L250.42 144.57L238.26 144.57L238.26 127.50L250.42 127.50L250.42 111.31L273.49 104.72L273.49 127.50L290.33 127.50L290.33 144.57L273.49 144.57L273.49 174.89Q273.49 186.61 282.79 186.61Q286.45 186.61 290.33 184.48M326.51 91.46L326.51 202.50L303.37 202.50L303.37 91.46L326.51 91.46M413.38 161.85L413.38 171.59L364.45 171.59Q365.63 187.92 385.03 187.92Q397.41 187.92 406.79 182.07L406.79 198.76Q396.39 204.33 379.76 204.33Q361.60 204.33 351.56 194.26Q341.53 184.19 341.53 166.17Q341.53 147.50 352.37 136.58Q363.21 125.67 379.03 125.67Q395.43 125.67 404.41 135.41Q413.38 145.15 413.38 161.85M364.31 157.38L391.92 157.38Q391.92 141.27 378.88 141.27Q373.32 141.27 369.25 145.88Q365.19 150.50 364.31 157.38" fill="#143c46"/>
    <path d="M573.85 97.47L547.34 202.50L513.72 202.50L499.15 142.66Q498.49 140.10 497.68 129.92L497.39 129.92Q496.29 138.93 495.26 142.66L479.52 202.50L443.92 202.50L418.87 97.47L453.59 97.47L462.38 159.29Q462.60 160.46 463.04 166.10L463.48 172.18L463.92 172.18Q464.06 170.27 464.79 165.70Q465.53 161.12 466.19 158.85L482.37 97.47L516.87 97.47L530.35 159.73L531.30 165.95L532.03 172.03L532.32 172.03L532.54 169.47L533.50 159.29L542.65 97.47L573.85 97.47M666.28 163.68Q666.28 182.65 654.82 193.49Q643.36 204.33 622.78 204.33Q602.34 204.33 590.95 193.75Q579.57 183.16 579.57 164.56Q579.57 152.62 584.91 143.83Q590.26 135.04 600.15 130.36Q610.03 125.67 622.92 125.67Q636.25 125.67 646.03 130.58Q655.81 135.48 661.05 144.20Q666.28 152.92 666.28 163.68M634.64 163.83Q634.64 148.52 622.92 148.52Q611.21 148.52 611.21 164.56Q611.21 181.48 623.07 181.48Q634.64 181.48 634.64 163.83M734.33 127.06L734.33 154.23Q732.57 153.43 729.57 152.77Q726.56 152.11 724.58 152.11Q709.13 152.11 709.13 169.98L709.13 202.50L677.93 202.50L677.93 127.50L709.13 127.50L709.13 140.68L709.42 140.68Q712.28 133.58 717.55 129.88Q722.83 126.18 729.86 126.18Q732.42 126.18 734.33 127.06M823.17 202.50L791.97 202.50L791.97 161.56Q791.97 154.60 789.88 151.56Q787.79 148.52 783.11 148.52Q779.08 148.52 776.81 151.67Q774.54 154.82 774.54 159.73L774.54 202.50L743.33 202.50L743.33 127.50L774.54 127.50L774.54 139.22L774.83 139.22Q778.56 132.77 784.86 129.22Q791.16 125.67 798.56 125.67Q823.17 125.67 823.17 156.72L823.17 202.50M939.11 148.67Q939.11 164.63 932.41 176.90Q925.71 189.17 913.26 195.83Q900.81 202.50 884.55 202.50L840.09 202.50L840.09 97.47L883.59 97.47Q939.11 97.47 939.11 148.67M905.49 148.96Q905.49 141.27 902.38 135.12Q899.27 128.96 893.48 125.60Q887.70 122.23 879.86 122.23L871.73 122.23L871.73 177.74L880.59 177.74Q891.94 177.74 898.72 169.94Q905.49 162.14 905.49 148.96M1024.29 173.86L977.93 173.86Q978.74 178.70 983.50 181.44Q988.26 184.19 996.09 184.19Q1007.01 184.19 1016.75 180.01L1016.75 199.79Q1005.40 204.33 989.21 204.33Q969.58 204.33 958.67 194.30Q947.75 184.26 947.75 166.68Q947.75 154.60 952.55 145.37Q957.35 136.14 966.76 130.91Q976.17 125.67 987.52 125.67Q999.17 125.67 1007.45 130.21Q1015.72 134.75 1020.01 142.95Q1024.29 151.16 1024.29 162.14L1024.29 173.86M977.78 157.53L996.68 157.53Q996.68 144.57 987.38 144.57Q983.50 144.57 980.86 148.12Q978.22 151.67 977.78 157.53M1115.77 127.50L1089.70 202.50L1052.64 202.50L1027.59 127.50L1060.11 127.50L1069.26 168.44Q1071.46 178.33 1071.68 183.31L1072.12 183.31Q1072.27 181.85 1072.52 180.31Q1072.78 178.77 1083.40 127.50" fill="#e8892b"/>
  </g>
</svg>